<svg version="1.1" id="daextsoenl-main" xmlns="http://www.w3.org/2000/svg" xmlns:xlink="http://www.w3.org/1999/xlink"
     x="0px" y="0px"
     viewBox="0 0 800 800" style="enable-background:new 0 0 800 800;" xml:space="preserve">
    <rect class="daextsoenl-default-avatar-background" width="800" height="800"/>
    <path class="daextsoenl-default-avatar-subject" d="M764,753c-6-14-66-57-236-116c0,0-14-27-16-56c0,0-7,0-13-5l-5-59c0,0,29-17,36-84c0,0,13-2,19-75
            c0,0-7-6-12-5c0,0,1.79-109.8,0.29-126.96c-5.81-12.56-27.34-52.23-77.29-78.04c0,0-24-12-60-14c-36,2-60,14-60,14
            c-49.95,25.81-71.48,65.47-77.29,78.04C261.21,243.2,263,353,263,353c-5-1-12,5-12,5c6,73,19,75,19,75c7,67,36,84,36,84l-5,59
            c-6,5-13,5-13,5c-2,29-16,56-16,56C102,696,42,739,36,753s-13,47-13,47h377h377C777,800,770,767,764,753z"/>
</svg>