<svg version="1.1" id="daextsoenl-main" xmlns="http://www.w3.org/2000/svg" xmlns:xlink="http://www.w3.org/1999/xlink"
     x="0px" y="0px"
     viewBox="0 0 800 800" style="enable-background:new 0 0 800 800;" xml:space="preserve">
    <rect class="daextsoenl-default-avatar-background" width="800" height="800"/>
    <path id="subject" class="daextsoenl-default-avatar-subject" d="M633,653c0,0-98-38-105-44c0,0-8-15-6-18c0,0-28-2-34-3c0,0-7-2-4-100c0,0,21,9,45,0
            c0,0,27-8,42-26c0,0-35-97-39-110c0,0,0-121-15-152s-35-67-117-73c-82,6-102,42-117,73s-15,152-15,152c-4,13-39,110-39,110
            c15,18,42,26,42,26c24,9,45,0,45,0c3,98-4,100-4,100c-6,1-34,3-34,3c2,3-6,18-6,18c-7,6-105,44-105,44C56,692,47,800,47,800h353h353
            C753,800,744,692,633,653z"/>
</svg>